<mxfile modified="2020-06-12T07:08:30.267Z" host="app.diagrams.net" agent="5.0 (Macintosh; Intel Mac OS X 10_15_3) AppleWebKit/605.1.15 (KHTML, like Gecko) Version/13.0.5 Safari/605.1.15" etag="jnYdgxBET7-lg4lQiiWg" version="13.2.3" type="github" pages="3">
  <diagram id="tp8GGBlBm5eCPmm8hhna" name="流程图">
    <mxGraphModel dx="768" dy="573" grid="1" gridSize="10" guides="1" tooltips="1" connect="1" arrows="1" fold="1" page="1" pageScale="1" pageWidth="827" pageHeight="1169" math="0" shadow="0">
      <root>
        <mxCell id="0" />
        <mxCell id="1" parent="0" />
        <mxCell id="Om96epUa-josNmQ2KaXx-4" value="" style="rounded=0;whiteSpace=wrap;html=1;" parent="1" vertex="1">
          <mxGeometry x="215" y="100" width="675" height="480" as="geometry" />
        </mxCell>
        <mxCell id="Om96epUa-josNmQ2KaXx-12" style="edgeStyle=orthogonalEdgeStyle;rounded=0;orthogonalLoop=1;jettySize=auto;html=1;entryX=0;entryY=0.5;entryDx=0;entryDy=0;" parent="1" source="Om96epUa-josNmQ2KaXx-1" target="Om96epUa-josNmQ2KaXx-5" edge="1">
          <mxGeometry relative="1" as="geometry" />
        </mxCell>
        <mxCell id="Om96epUa-josNmQ2KaXx-1" value="kafka&amp;nbsp;" style="rounded=0;whiteSpace=wrap;html=1;" parent="1" vertex="1">
          <mxGeometry x="60" y="155" width="140" height="60" as="geometry" />
        </mxCell>
        <mxCell id="Om96epUa-josNmQ2KaXx-13" style="edgeStyle=orthogonalEdgeStyle;rounded=0;orthogonalLoop=1;jettySize=auto;html=1;entryX=0;entryY=0.5;entryDx=0;entryDy=0;" parent="1" source="Om96epUa-josNmQ2KaXx-5" target="Om96epUa-josNmQ2KaXx-6" edge="1">
          <mxGeometry relative="1" as="geometry" />
        </mxCell>
        <mxCell id="Om96epUa-josNmQ2KaXx-5" value="DataSource&lt;br&gt;FlinkKafkaConsumer消费kafka事件日志数据" style="rounded=0;whiteSpace=wrap;html=1;" parent="1" vertex="1">
          <mxGeometry x="247" y="150" width="163" height="70" as="geometry" />
        </mxCell>
        <mxCell id="Om96epUa-josNmQ2KaXx-16" style="edgeStyle=orthogonalEdgeStyle;rounded=0;orthogonalLoop=1;jettySize=auto;html=1;exitX=1;exitY=0.5;exitDx=0;exitDy=0;entryX=1;entryY=0.5;entryDx=0;entryDy=0;" parent="1" source="Om96epUa-josNmQ2KaXx-6" target="Om96epUa-josNmQ2KaXx-7" edge="1">
          <mxGeometry relative="1" as="geometry" />
        </mxCell>
        <mxCell id="Om96epUa-josNmQ2KaXx-6" value="flatMap&lt;br&gt;解析kafka的日志数据 deviceGroup、deviceId、eventType、campaignId、day、hour &lt;br&gt;其中：I：deviceGroup 由deviceId.hashCode%10取模得出，目的由于设备分组&lt;br&gt;注意：模（10）是可配置的&lt;br&gt;ii：day、hour 由currentTimestamp得到" style="rounded=0;whiteSpace=wrap;html=1;" parent="1" vertex="1">
          <mxGeometry x="490" y="144" width="300" height="110" as="geometry" />
        </mxCell>
        <mxCell id="Om96epUa-josNmQ2KaXx-17" style="edgeStyle=orthogonalEdgeStyle;rounded=0;orthogonalLoop=1;jettySize=auto;html=1;entryX=1;entryY=0.5;entryDx=0;entryDy=0;" parent="1" source="Om96epUa-josNmQ2KaXx-7" target="Om96epUa-josNmQ2KaXx-8" edge="1">
          <mxGeometry relative="1" as="geometry" />
        </mxCell>
        <mxCell id="Om96epUa-josNmQ2KaXx-7" value="keyBy&lt;br&gt;将flatMap解析的时间日志数据按照deviceGroup进行分组" style="rounded=0;whiteSpace=wrap;html=1;" parent="1" vertex="1">
          <mxGeometry x="696" y="322.5" width="160" height="75" as="geometry" />
        </mxCell>
        <mxCell id="Om96epUa-josNmQ2KaXx-18" style="edgeStyle=orthogonalEdgeStyle;rounded=0;orthogonalLoop=1;jettySize=auto;html=1;" parent="1" source="Om96epUa-josNmQ2KaXx-8" target="Om96epUa-josNmQ2KaXx-9" edge="1">
          <mxGeometry relative="1" as="geometry" />
        </mxCell>
        <mxCell id="Om96epUa-josNmQ2KaXx-8" value="timeWindow&lt;br&gt;按照20s（可配置）时间窗口滚动取数（改成按照条数或者内存大小读取）" style="rounded=0;whiteSpace=wrap;html=1;" parent="1" vertex="1">
          <mxGeometry x="510" y="325" width="150" height="70" as="geometry" />
        </mxCell>
        <mxCell id="Om96epUa-josNmQ2KaXx-20" style="edgeStyle=orthogonalEdgeStyle;rounded=0;orthogonalLoop=1;jettySize=auto;html=1;entryX=0;entryY=0.5;entryDx=0;entryDy=0;exitX=0;exitY=0.5;exitDx=0;exitDy=0;" parent="1" source="Om96epUa-josNmQ2KaXx-9" target="Om96epUa-josNmQ2KaXx-10" edge="1">
          <mxGeometry relative="1" as="geometry" />
        </mxCell>
        <mxCell id="Om96epUa-josNmQ2KaXx-9" value="apply&lt;br&gt;对timeWindow取出的指定deviceGroup的&lt;br&gt;数据集合按照deviceId做分组统计，将聚合结果DeviceWindowGroupCount输出到sink" style="rounded=0;whiteSpace=wrap;html=1;" parent="1" vertex="1">
          <mxGeometry x="250" y="310" width="210" height="100" as="geometry" />
        </mxCell>
        <mxCell id="Om96epUa-josNmQ2KaXx-21" style="edgeStyle=orthogonalEdgeStyle;rounded=0;orthogonalLoop=1;jettySize=auto;html=1;" parent="1" source="Om96epUa-josNmQ2KaXx-10" target="Om96epUa-josNmQ2KaXx-11" edge="1">
          <mxGeometry relative="1" as="geometry" />
        </mxCell>
        <mxCell id="Om96epUa-josNmQ2KaXx-10" value="sink&lt;br&gt;1，得到appy聚合之后的DeviceWindowGroupCount，对统计的设备集合map，分批次在redis中取出redis上的freqPb数据和本次统计数据做累加（每批次开启多线程提升处理速度）&lt;br&gt;2，累加完成之后得到最新的freqPb数据分批次输出到redis，同时设置有效期设置为3天&lt;br&gt;注意：i：每次redis取数批次可配置&lt;br&gt;ii:，输出redis失败的数据放到内存的有界队列中，下次触发的时候顺序处理。同时保证redis挂了之后停止读取kafka数据，同时将失败记录&lt;br&gt;iii: 每个设备redis的key为 freq_deviceId(byte[]格式)，freqPb的数据只保留近3天的数据，超出3天做删除" style="rounded=0;whiteSpace=wrap;html=1;" parent="1" vertex="1">
          <mxGeometry x="350" y="430" width="410" height="150" as="geometry" />
        </mxCell>
        <mxCell id="Om96epUa-josNmQ2KaXx-11" value="redis" style="shape=cylinder;whiteSpace=wrap;html=1;boundedLbl=1;backgroundOutline=1;" parent="1" vertex="1">
          <mxGeometry x="920" y="460" width="100" height="100" as="geometry" />
        </mxCell>
      </root>
    </mxGraphModel>
  </diagram>
  <diagram id="Bs-fnQ_iWyVqJIhbYfBn" name="流程图简版">
    <mxGraphModel dx="1172" dy="648" grid="1" gridSize="10" guides="1" tooltips="1" connect="1" arrows="1" fold="1" page="1" pageScale="1" pageWidth="827" pageHeight="1169" math="0" shadow="0">
      <root>
        <mxCell id="4XsSJLyu1HwlmcdIaIai-0" />
        <mxCell id="4XsSJLyu1HwlmcdIaIai-1" parent="4XsSJLyu1HwlmcdIaIai-0" />
        <mxCell id="yJW0D3nbve6sixl76TTS-19" style="edgeStyle=orthogonalEdgeStyle;rounded=0;orthogonalLoop=1;jettySize=auto;html=1;" edge="1" parent="4XsSJLyu1HwlmcdIaIai-1" source="yJW0D3nbve6sixl76TTS-4" target="yJW0D3nbve6sixl76TTS-6">
          <mxGeometry relative="1" as="geometry" />
        </mxCell>
        <mxCell id="yJW0D3nbve6sixl76TTS-4" value="DataSource&lt;br&gt;FlinkKafkaConsumer消费kafka事件日志数据" style="rounded=0;whiteSpace=wrap;html=1;" vertex="1" parent="4XsSJLyu1HwlmcdIaIai-1">
          <mxGeometry x="223.5" y="120" width="163" height="70" as="geometry" />
        </mxCell>
        <mxCell id="yJW0D3nbve6sixl76TTS-20" style="edgeStyle=orthogonalEdgeStyle;rounded=0;orthogonalLoop=1;jettySize=auto;html=1;entryX=0.5;entryY=0;entryDx=0;entryDy=0;" edge="1" parent="4XsSJLyu1HwlmcdIaIai-1" source="yJW0D3nbve6sixl76TTS-6" target="yJW0D3nbve6sixl76TTS-8">
          <mxGeometry relative="1" as="geometry" />
        </mxCell>
        <mxCell id="yJW0D3nbve6sixl76TTS-6" value="flatMap&lt;br&gt;解析kafka的日志数据 deviceGroup、deviceId、eventType、campaignId、day、hour " style="rounded=0;whiteSpace=wrap;html=1;" vertex="1" parent="4XsSJLyu1HwlmcdIaIai-1">
          <mxGeometry x="185" y="220" width="240" height="70" as="geometry" />
        </mxCell>
        <mxCell id="yJW0D3nbve6sixl76TTS-26" value="" style="edgeStyle=orthogonalEdgeStyle;rounded=0;orthogonalLoop=1;jettySize=auto;html=1;" edge="1" parent="4XsSJLyu1HwlmcdIaIai-1" source="yJW0D3nbve6sixl76TTS-8" target="yJW0D3nbve6sixl76TTS-21">
          <mxGeometry relative="1" as="geometry" />
        </mxCell>
        <mxCell id="yJW0D3nbve6sixl76TTS-8" value="keyBy&lt;br&gt;将flatMap解析的日志数据按照deviceGroup进行分组" style="rounded=0;whiteSpace=wrap;html=1;" vertex="1" parent="4XsSJLyu1HwlmcdIaIai-1">
          <mxGeometry x="208" y="320" width="194" height="60" as="geometry" />
        </mxCell>
        <mxCell id="yJW0D3nbve6sixl76TTS-28" style="edgeStyle=orthogonalEdgeStyle;rounded=0;orthogonalLoop=1;jettySize=auto;html=1;entryX=0.5;entryY=0;entryDx=0;entryDy=0;" edge="1" parent="4XsSJLyu1HwlmcdIaIai-1" source="yJW0D3nbve6sixl76TTS-12" target="yJW0D3nbve6sixl76TTS-14">
          <mxGeometry relative="1" as="geometry" />
        </mxCell>
        <mxCell id="yJW0D3nbve6sixl76TTS-12" value="process&lt;br&gt;对Window取出的指定deviceGroup的&lt;br&gt;数据集合按照deviceId做分组统计，将聚合结果DeviceWindowGroupCount输出到sink" style="rounded=0;whiteSpace=wrap;html=1;" vertex="1" parent="4XsSJLyu1HwlmcdIaIai-1">
          <mxGeometry x="192" y="543" width="237" height="74" as="geometry" />
        </mxCell>
        <mxCell id="yJW0D3nbve6sixl76TTS-29" style="edgeStyle=orthogonalEdgeStyle;rounded=0;orthogonalLoop=1;jettySize=auto;html=1;entryX=0.5;entryY=0;entryDx=0;entryDy=0;" edge="1" parent="4XsSJLyu1HwlmcdIaIai-1" source="yJW0D3nbve6sixl76TTS-14" target="yJW0D3nbve6sixl76TTS-15">
          <mxGeometry relative="1" as="geometry" />
        </mxCell>
        <mxCell id="yJW0D3nbve6sixl76TTS-14" value="sink&lt;br&gt;聚合之后的DeviceWindowGroupCount，分批次在redis中读取出redis上的freqPb数据和本次统计数据做累加（每批次开启多线程提升处理速度）,&lt;br&gt;得到最新的freqPb数据输出到redis，同时设置有效期设置为3天" style="rounded=0;whiteSpace=wrap;html=1;" vertex="1" parent="4XsSJLyu1HwlmcdIaIai-1">
          <mxGeometry x="151" y="670" width="319" height="80" as="geometry" />
        </mxCell>
        <mxCell id="yJW0D3nbve6sixl76TTS-15" value="redis&lt;br&gt;freq_deviceid:freqpb" style="shape=cylinder;whiteSpace=wrap;html=1;boundedLbl=1;backgroundOutline=1;" vertex="1" parent="4XsSJLyu1HwlmcdIaIai-1">
          <mxGeometry x="235.5" y="800" width="150" height="100" as="geometry" />
        </mxCell>
        <mxCell id="yJW0D3nbve6sixl76TTS-18" style="edgeStyle=orthogonalEdgeStyle;rounded=0;orthogonalLoop=1;jettySize=auto;html=1;" edge="1" parent="4XsSJLyu1HwlmcdIaIai-1" source="yJW0D3nbve6sixl76TTS-17" target="yJW0D3nbve6sixl76TTS-4">
          <mxGeometry relative="1" as="geometry" />
        </mxCell>
        <mxCell id="yJW0D3nbve6sixl76TTS-17" value="&lt;span style=&quot;white-space: normal&quot;&gt;kafka&amp;nbsp;&lt;br&gt;事件日志数据&lt;br&gt;&lt;/span&gt;" style="ellipse;whiteSpace=wrap;html=1;" vertex="1" parent="4XsSJLyu1HwlmcdIaIai-1">
          <mxGeometry x="240" y="30" width="130" height="60" as="geometry" />
        </mxCell>
        <mxCell id="yJW0D3nbve6sixl76TTS-27" style="edgeStyle=orthogonalEdgeStyle;rounded=0;orthogonalLoop=1;jettySize=auto;html=1;entryX=0.471;entryY=0.013;entryDx=0;entryDy=0;entryPerimeter=0;" edge="1" parent="4XsSJLyu1HwlmcdIaIai-1" source="yJW0D3nbve6sixl76TTS-21" target="yJW0D3nbve6sixl76TTS-12">
          <mxGeometry relative="1" as="geometry" />
        </mxCell>
        <mxCell id="yJW0D3nbve6sixl76TTS-21" value="window&lt;br&gt;自定义触发器实现带超时时间的 CountWindow&lt;br&gt;到时间（例：10s）就触发，并且到时间之前如果已经积累了足够数量（例：1000条）的数据&amp;nbsp;" style="rounded=0;whiteSpace=wrap;html=1;" vertex="1" parent="4XsSJLyu1HwlmcdIaIai-1">
          <mxGeometry x="175" y="421.5" width="260" height="80" as="geometry" />
        </mxCell>
      </root>
    </mxGraphModel>
  </diagram>
  <diagram id="m-t3kZf6NYWRpEtEplmw" name="时序图">
    <mxGraphModel dx="466" dy="573" grid="1" gridSize="10" guides="1" tooltips="1" connect="1" arrows="1" fold="1" page="1" pageScale="1" pageWidth="827" pageHeight="1169" math="0" shadow="0">
      <root>
        <mxCell id="ul-lirElWWZayUL1dEKj-0" />
        <mxCell id="ul-lirElWWZayUL1dEKj-1" parent="ul-lirElWWZayUL1dEKj-0" />
        <mxCell id="ul-lirElWWZayUL1dEKj-2" value=":Object" style="shape=umlLifeline;perimeter=lifelinePerimeter;whiteSpace=wrap;html=1;container=1;collapsible=0;recursiveResize=0;outlineConnect=0;" parent="ul-lirElWWZayUL1dEKj-1" vertex="1">
          <mxGeometry x="200" y="380" width="100" height="300" as="geometry" />
        </mxCell>
        <mxCell id="ul-lirElWWZayUL1dEKj-3" value=":Object" style="shape=umlLifeline;perimeter=lifelinePerimeter;whiteSpace=wrap;html=1;container=1;collapsible=0;recursiveResize=0;outlineConnect=0;" parent="ul-lirElWWZayUL1dEKj-1" vertex="1">
          <mxGeometry x="330" y="380" width="100" height="300" as="geometry" />
        </mxCell>
        <mxCell id="ul-lirElWWZayUL1dEKj-4" value=":Object" style="shape=umlLifeline;perimeter=lifelinePerimeter;whiteSpace=wrap;html=1;container=1;collapsible=0;recursiveResize=0;outlineConnect=0;" parent="ul-lirElWWZayUL1dEKj-1" vertex="1">
          <mxGeometry x="460" y="380" width="100" height="300" as="geometry" />
        </mxCell>
        <mxCell id="KAFCr6ogGWRRX8-nKEhp-1" value=":Object" style="shape=umlLifeline;perimeter=lifelinePerimeter;whiteSpace=wrap;html=1;container=1;collapsible=0;recursiveResize=0;outlineConnect=0;" vertex="1" parent="ul-lirElWWZayUL1dEKj-1">
          <mxGeometry x="600" y="380" width="100" height="300" as="geometry" />
        </mxCell>
        <mxCell id="KAFCr6ogGWRRX8-nKEhp-2" value="&lt;span style=&quot;color: rgb(50 , 50 , 50) ; font-size: 13px ; background-color: rgba(255 , 255 , 255 , 0.00784314)&quot;&gt;redis集群&lt;/span&gt;&lt;div style=&quot;resize: none ; outline: 0px ; font-size: 13px ; color: rgb(50 , 50 , 50) ; background-color: rgba(255 , 255 , 255 , 0.00784314)&quot;&gt;deviceId：freqPb&lt;/div&gt;" style="shape=cylinder;whiteSpace=wrap;html=1;boundedLbl=1;backgroundOutline=1;" vertex="1" parent="ul-lirElWWZayUL1dEKj-1">
          <mxGeometry x="730" y="600" width="90" height="80" as="geometry" />
        </mxCell>
        <mxCell id="KAFCr6ogGWRRX8-nKEhp-4" value="&lt;span style=&quot;color: rgb(50 , 50 , 50) ; font-size: 13px ; background-color: rgba(255 , 255 , 255 , 0.00784314)&quot;&gt;kafka事件日志消息队列&lt;/span&gt;" style="shape=tapeData;whiteSpace=wrap;html=1;perimeter=ellipsePerimeter;" vertex="1" parent="ul-lirElWWZayUL1dEKj-1">
          <mxGeometry x="30" y="370" width="100" height="90" as="geometry" />
        </mxCell>
      </root>
    </mxGraphModel>
  </diagram>
</mxfile>
